<?xml version="1.0" encoding="UTF-8"?>
<svg id="_레이어_2" data-name="레이어 2" xmlns="http://www.w3.org/2000/svg" width="816" height="109" viewBox="0 0 816 109">
  <defs>
    <style>
      .cls-1 {
        fill: none;
        stroke: #f7d34d;
        stroke-miterlimit: 10;
        stroke-width: 15px;
      }
    </style>
  </defs>
  <path class="cls-1" d="M15.19,90.6s39.81-26.6,43.81-28.6,12-7,15-7,24,13,24,13c0,0,9.5-8.5,11.5-9.5s7-5,12-5,11-10,15-14,4-6,8-6,9,5,11,7,5,8,7,10,8,6,10,9,6.97,7.61,6.97,7.61c0,0,7.03-9.61,11.03-9.61s9,4,11,6l4,4s8-7,12-9,8-4,10-4,16,9,16,9l17,11s8-9,10-11,6-5,8-7,5.38-7.3,7.69-9.65,8.31-9.35,11.31-9.35,9,7,9,7l17,17,21.69,25.1,14.31-18.1s8-12,11-15,12-11,15-11,10-1,14,2,8,7,8,7c0,0,5-9,7-13s7-13,11-17,11-11,16-11,16,5,19,9,18,20,18,20l15,18s18-13,23-13,20.07,11.6,20.07,11.6l18.93,11.4,12-12c2-2,6-7,8-9s11-13,16-13,16,14,16,14l15,16,7.18-7.4s6.82-5.6,9.82-9.6,9-11,11-13,6-5,9-5,13,11,13,11l10.88,11.05,5.12,6.95s7-2,11,0,17,15,17,15l10-5c4-2,10-6,14-6s13,6,13,6l25,17,22.19,14.6"/>
</svg>