<?xml version="1.0" encoding="UTF-8"?>
<svg id="_레이어_2" data-name="레이어 2" xmlns="http://www.w3.org/2000/svg" width="1278" height="176" viewBox="0 0 1278 176">
  <defs>
    <style>
      .cls-1 {
        fill: none;
        stroke: #f7d34d;
        stroke-miterlimit: 10;
      }
    </style>
  </defs>
  <path class="cls-1" d="M10,166.5s37-2,44-2,67.49,4,69.74,0,3.74-7.89,0-7.45-12.53,3.96-14.64,4.71-.11-9.26,2.89-9.26-6.04-3-9.02,0-7.17,7.67-11.57,6.33,2.94-6,4.77-7.67-13.17,5.33-15.17,4.33,8-7,8-7c0,0-20,2-19-2s20.5-2.5,24.5-.5-6-5-4-8,12,6,12,6c0,0-2.6-5.22-.8-6.61s6.8,4.61,8.8,1.61-3-7-4-7-10,3-10,1,4-5,4-5c0,0-11,6-12,4s7-6,6-7-13,1-13-2,9-1,10-3-17-6-17-8,14,3,18,2-2-5,2-5,5,8,7,8,2-5,4-5,6,8,9,7,4,4,2,4,0,3,5,1,4.53,.29,4.53,.29c0,0,1.47,3.71-1.53,4.71s11,2,8-7,6,2,7-2-12-2-16-6,7.79-3,7.39-5-21.39,2-22.39-3,21-3,22-7-22-4-22-5,6-4,6-5-10.67,0-10.67,0c0,0-7.33,0-5.33-2s9-1,10-2-12-2-12-4,9-1,9-1c0,0-15-9-11-11s13,9,13,9c0,0-2.62-9.49-.31-9.24s4.31,9.24,4.31,9.24c0,0,0-8,1-8s4,9,6,8,0-8,3-7,3,10,4,11,1-4,4-4-2,7,1,8,3-4,6-2-3,10,0,8,5.11-9.53,3.05-13.27-9.05-4.73-12.05-6.73-8-4-6-6,8,3,9,2-1-4-3-4-19-2-18-4,5-2,9-1,12,5,13,2-13-7-11-10,14,9,15,6,1-7-1-10-2-5-1-6,2-6-1-7-11-3-9-5,9,3,10,1-3-19,1-19,3,16,3,16c0,0,12-9,13-6s-14,9-13,11,8-3,9-1-9,5-7,7,5,5,4,7,0,10-2,11,1,5,5-1,3-14,7-13-3,11-2,11,15-14,19-10-14,7-13,9,8,2,8,3-6,3-8,3-1,1,1,3-5,0-7,2,2,1-1,4-5,6-1,5,9-6,12-5,11-5,14-2-10,10-13,10,6,6,4,7-11-3-15-2-8,5-6,8,5,3,4,5-7,6-5,7,26-17,30-19,7-5,9-3-5,9-8,9-7,1-6,2,8,0,8,3-12,1-13,2,7,4,5,6-10-4-12-2,4,5,3,6-9-3-11,0-6,7-2,8,14-1,17-3,12-7,14-6-5,6-3,6,6-5,8-3-12,8-9,9,20-9,24-3-20,5-20,6,6,2,5,4-6,0-9,0-6,1-5,4-3,0-7,0-6-1-7,2-1-1-6,0-6,3-5,5-12,1-16,2-8,5-5,6,9-3,11-1,0,5-2,6,7,0,12-5,4,1,6,0,8-6,9-3-4,6-7,7-7,10-1,7,13-10,16-7,2,8-4,8-14,0-14,2,1,5,5,4,4,3,1,4,2,3,5,3,33-3,41-2,20,3,28,1l5.5,.61c4.73,1.18,11.83,0,16.57-.59s22.48,1.18,24.26,1.18,4.73-1.18,2.96-1.77-1.77-2.96,.59-2.37,2.96-1.18,2.96-2.37-4.73-1.18-8.28-1.18-4.14-2.96-2.37-4.73,5.92,2.37,9.47,4.14,1.18-3.55-.59-4.14-4.73-2.37-4.14-4.14,4.14,1.18,5.32,1.77,.59-2.96,3.55,0,8.28,3.55,7.1,2.96-2.37-2.37-1.18-3.55,4.73,1.18,6.51,.59-.59-2.96-2.96-3.55-10.06,0-9.47-1.18,0-2.37-2.96-2.96-2.96,1.77-3.55,0-1.77-1.18-4.14-1.18-4.73,1.77-4.14,0-1.18-2.37-2.96-2.37-4.73,1.18-5.32,0,2.96-1.77,2.96-2.37c0-.59-14.2,0-11.83-3.55s12.42,2.37,14.2,1.77-6.51-4.14-5.32-5.32,3.55,1.77,4.73,1.77-2.96-2.96-1.77-3.55,6.51,2.37,8.28,3.55,7.69,2.37,10.06,1.77,0-2.96-1.18-4.73-5.92,.59-6.51,0,2.96-2.37,1.77-3.55-5.92,2.37-7.1,1.18,3.55-2.96,2.96-3.55-7.69,.59-7.69-1.18,4.14-1.18,4.73-1.77-1.77-1.18-3.55-1.18-5.92-4.14-4.73-5.32,2.96,.59,5.32,1.77,16.57,11.83,17.75,11.24-2.37-2.96-2.96-4.14,1.18-1.18,2.37-2.96-1.18-4.14-3.55-4.73-7.69,1.77-8.87,1.18,4.14-4.14,2.37-4.14-9.47-4.14-7.69-5.92,6.51,1.77,8.28,1.18,4.73,2.37,7.1,2.96,1.18-1.18-.59-2.96,.59-1.18-.59-2.37-5.32,0-4.14-1.18,1.77-1.77,.59-1.77-4.73-1.18-4.73-1.77,4.14-.59,4.73-1.77-10.06-2.96-7.69-5.32,10.65,5.92,11.24,5.92-3.55-5.92-1.18-6.51,1.77,4.14,4.14,7.69,4.14,1.18,2.96,.59-.59-5.32-1.18-6.51,1.18-2.96,2.37-4.14-4.73-2.96-4.14-4.14,4.73,1.77,5.32,.59-8.28-4.73-7.69-6.51,7.69,3.55,7.69,3.55c0,0-.59-9.47,1.77-9.47s0,10.06,.59,11.24,4.73-1.77,5.92-.59-3.55,2.37-5.32,2.96-1.18,3.55-.59,4.14,.59,1.77-.59,3.55-1.18,4.14-.59,5.92,7.69-5.32,8.87-3.55-7.1,4.14-6.51,5.92,5.32-.59,7.69-1.18,4.73-.59,5.32,.59-9.47,2.37-10.65,2.37-2.37,1.77-1.77,2.37,4.14-2.37,5.32-1.18-1.77,2.37-3.55,3.55-5.92,1.77-7.13,3.98,.03,6.67,1.81,7.85-1.77-3.55,0-4.73,1.77,1.77,3.55,1.18-1.18-4.73,.59-4.73,1.77,2.96,2.37,2.37,.59-5.92,2.37-6.51,.59,3.55,1.77,4.14,2.96-4.73,3.55-4.73,.59,4.73,.59,4.73c0,0,1.18-5.32,2.55-5.47s-.18,5.47-.18,5.47c0,0,5.32-6.51,7.69-5.32s-6.51,6.51-6.51,6.51c0,0,5.32-.59,5.32,.59s-7.69,1.77-7.1,2.37,4.73,0,5.92,1.18-3.15,1.18-3.15,1.18c0,0-6.31-.59-6.31,0s3.55,2.37,3.55,2.96-13.61,.59-13.02,2.96,13.61,1.18,13.02,4.14-13.02,.59-13.25,1.77,6.74,.59,4.37,2.96-10.06,1.18-9.47,3.55,5.92-4.14,4.14,1.18,6.51,4.73,4.73,4.14-.9-2.79-.9-2.79c0,0-.28-1.35,2.68-.17s4.14-.59,2.96-.59-.59-2.96,1.18-2.37,4.14-4.14,5.32-4.14,1.18,2.96,2.37,2.96,1.77-4.73,4.14-4.73-1.18,2.37,1.18,2.96,10.65-2.37,10.65-1.18-10.65,3.55-10.06,4.73,5.92,0,5.92,1.77-7.1,.59-7.69,1.18,4.14,2.96,3.55,4.14-7.1-2.37-7.1-2.37c0,0,2.37,1.77,2.37,2.96s-5.32-.59-5.92-.59-3.55,2.37-2.37,4.14,4.14-1.77,5.21-.95-.47,3.91-.47,3.91c0,0,5.92-5.32,7.1-3.55s-4.73,5.92-2.37,4.73,13.9-2.07,14.5,.3-11.24,1.18-11.24,1.18c0,0,5.92,3.55,4.73,4.14s-10.06-3.55-8.98-2.56,5.43,3.75,2.82,4.54-5.09-1.97-6.85-3.75-7.11,0-5.34,0,2.96,5.92,1.71,5.48-6.45-2.52-8.66-2.78-1.33,2.04,0,4.41,37.12,0,41.26,0,26.03,1.18,26.03,1.18h18.95s28.82-1.56,34.28-1.56,52.58,3.12,54.33,0c1.76-3.12,2.92-6.15,0-5.8s-9.76,3.09-11.4,3.67-.08-7.21,2.25-7.21-4.71-2.34-7.03,0c-2.32,2.34-5.59,5.97-9.02,4.93s2.29-4.67,3.71-5.97-10.26,4.15-11.82,3.38,6.23-5.45,6.23-5.45c0,0-15.58,1.56-14.8-1.56s15.97-1.95,19.09-.39-4.67-3.9-3.12-6.23c1.56-2.34,9.35,4.67,9.35,4.67,0,0-2.02-4.07-.62-5.15s5.3,3.59,6.85,1.26-2.34-5.45-3.12-5.45-7.79,2.34-7.79,.78c0-1.56,3.12-3.9,3.12-3.9,0,0-8.57,4.67-9.35,3.12s5.45-4.67,4.67-5.45-10.13,.78-10.13-1.56c0-2.34,7.01-.78,7.79-2.34s-13.24-4.67-13.24-6.23,10.91,2.34,14.02,1.56-1.56-3.9,1.56-3.9,3.9,6.23,5.45,6.23,1.56-3.9,3.12-3.9,4.67,6.23,7.01,5.45,3.12,3.12,1.56,3.12,0,2.34,3.9,.78,3.53,.22,3.53,.22c0,0,1.15,2.89-1.19,3.67s8.57,1.56,6.23-5.45c-2.34-7.01,4.67,1.56,5.45-1.56s-9.35-1.56-12.46-4.67c-3.12-3.12,6.07-2.34,5.76-3.9s-16.67,1.56-17.45-2.34,16.36-2.34,17.14-5.45c.78-3.12-17.14-3.12-17.14-3.9s4.67-3.12,4.67-3.9c0-.78-8.31,0-8.31,0,0,0-5.71,0-4.15-1.56s7.01-.78,7.79-1.56-9.35-1.56-9.35-3.12,7.01-.78,7.01-.78c0,0-11.69-7.01-8.57-8.57s10.13,7.01,10.13,7.01c0,0-2.04-7.39-.24-7.2s3.36,7.2,3.36,7.2c0,0,0-6.23,.78-6.23s3.12,7.01,4.67,6.23,0-6.23,2.34-5.45,2.34,7.79,3.12,8.57,.78-3.12,3.12-3.12-1.56,5.45,.78,6.23c2.34,.78,2.34-3.12,4.67-1.56s-2.34,7.79,0,6.23,3.98-7.43,2.38-10.33-7.05-3.69-9.39-5.25-6.23-3.12-4.67-4.67,6.23,2.34,7.01,1.56-.78-3.12-2.34-3.12-14.8-1.56-14.02-3.12,3.9-1.56,7.01-.78c3.12,.78,9.35,3.9,10.13,1.56s-10.13-5.45-8.57-7.79c1.56-2.34,10.91,7.01,11.69,4.67s.78-5.45-.78-7.79c-1.56-2.34-1.56-3.9-.78-4.67s1.56-4.67-.78-5.45-8.57-2.34-7.01-3.9,7.01,2.34,7.79,.78c.78-1.56-2.34-14.8,.78-14.8s2.34,12.46,2.34,12.46c0,0,9.35-7.01,10.13-4.67s-10.91,7.01-10.13,8.57,6.23-2.34,7.01-.78-7.01,3.9-5.45,5.45,3.9,3.9,3.12,5.45,0,7.79-1.56,8.57,.78,3.9,3.9-.78,2.34-10.91,5.45-10.13c3.12,.78-2.34,8.57-1.56,8.57s11.69-10.91,14.8-7.79c3.12,3.12-10.91,5.45-10.13,7.01s6.23,1.56,6.23,2.34-4.67,2.34-6.23,2.34-.78,.78,.78,2.34-3.9,0-5.45,1.56,1.56,.78-.78,3.12c-2.34,2.34-3.9,4.67-.78,3.9s7.01-4.67,9.35-3.9,8.57-3.9,10.91-1.56-7.79,7.79-10.13,7.79,4.67,4.67,3.12,5.45-8.57-2.34-11.69-1.56-6.23,3.9-4.67,6.23,3.9,2.34,3.12,3.9-5.45,4.67-3.9,5.45,20.26-13.24,23.37-14.8,5.45-3.9,7.01-2.34-3.9,7.01-6.23,7.01-5.45,.78-4.67,1.56,6.23,0,6.23,2.34-9.35,.78-10.13,1.56,5.45,3.12,3.9,4.67-7.79-3.12-9.35-1.56,3.12,3.9,2.34,4.67-7.01-2.34-8.57,0-4.67,5.45-1.56,6.23,10.91-.78,13.24-2.34,9.35-5.45,10.91-4.67-3.9,4.67-2.34,4.67,4.67-3.9,6.23-2.34-9.35,6.23-7.01,7.01,15.58-7.01,18.7-2.34c3.12,4.67-15.58,3.9-15.58,4.67,0,.78,4.67,1.56,3.9,3.12s-4.67,0-7.01,0-4.67,.78-3.9,3.12-2.34,0-5.45,0-4.67-.78-5.45,1.56c-.78,2.34-.78-.78-4.67,0s-4.67,2.34-3.9,3.9-9.35,.78-12.46,1.56c-3.12,.78-6.23,3.9-3.9,4.67s7.01-2.34,8.57-.78,0,3.9-1.56,4.67,5.45,0,9.35-3.9,3.12,.78,4.67,0,6.23-4.67,7.01-2.34-3.12,4.67-5.45,5.45-5.45,7.79-.78,5.45,10.13-7.79,12.46-5.45,1.56,6.23-3.12,6.23-10.91,0-10.91,1.56,.78,3.9,3.9,3.12c3.12-.78,3.12,2.34,.78,3.12s1.56,2.34,3.9,2.34,12.21-.89,18.44-.11l6.12-.96c-1.8-.6-1.8-3,.6-2.4,2.4,.6,3-1.2,3-2.4s-4.81-1.2-8.41-1.2-4.2-3-2.4-4.81,6.01,2.4,9.61,4.2,1.2-3.6-.6-4.2-4.81-2.4-4.2-4.2,4.2,1.2,5.41,1.8,.6-3,3.6,0,8.41,3.6,7.21,3-2.4-2.4-1.2-3.6,4.81,1.2,6.61,.6-.6-3-3-3.6-10.21,0-9.61-1.2,0-2.4-3-3-3,1.8-3.6,0-1.8-1.2-4.2-1.2-4.81,1.8-4.2,0-1.2-2.4-3-2.4-4.81,1.2-5.41,0,3-1.8,3-2.4-14.42,0-12.01-3.6c2.4-3.6,12.61,2.4,14.42,1.8s-6.61-4.2-5.41-5.41,3.6,1.8,4.81,1.8-3-3-1.8-3.6,6.61,2.4,8.41,3.6,7.81,2.4,10.21,1.8,0-3-1.2-4.81-6.01,.6-6.61,0,3-2.4,1.8-3.6-6.01,2.4-7.21,1.2,3.6-3,3-3.6-7.81,.6-7.81-1.2,4.2-1.2,4.81-1.8-1.8-1.2-3.6-1.2-6.01-4.2-4.81-5.41,3,.6,5.41,1.8,16.82,12.01,18.02,11.41-2.4-3-3-4.2,1.2-1.2,2.4-3-1.2-4.2-3.6-4.81-7.81,1.8-9.01,1.2,4.2-4.2,2.4-4.2-9.61-4.2-7.81-6.01,6.61,1.8,8.41,1.2,4.81,2.4,7.21,3,1.2-1.2-.6-3,.6-1.2-.6-2.4-5.41,0-4.2-1.2,1.8-1.8,.6-1.8-4.81-1.2-4.81-1.8c0-.6,4.2-.6,4.81-1.8s-10.21-3-7.81-5.41c2.4-2.4,10.81,6.01,11.41,6.01s-3.6-6.01-1.2-6.61,1.8,4.2,4.2,7.81,4.2,1.2,3,.6-.6-5.41-1.2-6.61,1.2-3,2.4-4.2-4.81-3-4.2-4.2,4.81,1.8,5.41,.6-8.41-4.81-7.81-6.61,7.81,3.6,7.81,3.6c0,0-.6-9.61,1.8-9.61s0,10.21,.6,11.41,4.81-1.8,6.01-.6-3.6,2.4-5.41,3-1.2,3.6-.6,4.2,.6,1.8-.6,3.6-1.2,4.2-.6,6.01,7.81-5.41,9.01-3.6-7.21,4.2-6.61,6.01,5.41-.6,7.81-1.2c2.4-.6,4.81-.6,5.41,.6s-9.61,2.4-10.81,2.4-2.4,1.8-1.8,2.4,4.2-2.4,5.41-1.2-1.8,2.4-3.6,3.6-6.01,1.8-7.24,4.04,.03,6.77,1.83,7.97-1.8-3.6,0-4.81,1.8,1.8,3.6,1.2-1.2-4.81,.6-4.81,1.8,3,2.4,2.4,.6-6.01,2.4-6.61,.6,3.6,1.8,4.2,3-4.81,3.6-4.81,.6,4.81,.6,4.81c0,0,1.2-5.41,2.59-5.55s-.19,5.55-.19,5.55c0,0,5.41-6.61,7.81-5.41s-6.61,6.61-6.61,6.61c0,0,5.41-.6,5.41,.6s-7.81,1.8-7.21,2.4,4.81,0,6.01,1.2-3.2,1.2-3.2,1.2c0,0-6.41-.6-6.41,0,0,.6,3.6,2.4,3.6,3,0,.6-13.81,.6-13.21,3,.6,2.4,13.81,1.2,13.21,4.2s-13.21,.6-13.45,1.8,6.84,.6,4.44,3-10.21,1.2-9.61,3.6,6.01-4.2,4.2,1.2,6.61,4.81,4.81,4.2-.92-2.83-.92-2.83c0,0-.28-1.37,2.72-.17,3,1.2,4.2-.6,3-.6s-.6-3,1.2-2.4,4.2-4.2,5.41-4.2,1.2,3,2.4,3,1.8-4.81,4.2-4.81-1.2,2.4,1.2,3,10.81-2.4,10.81-1.2-10.81,3.6-10.21,4.81,6.01,0,6.01,1.8-7.21,.6-7.81,1.2,4.2,3,3.6,4.2-7.21-2.4-7.21-2.4c0,0,2.4,1.8,2.4,3,0,1.2-5.41-.6-6.01-.6s-3.6,2.4-2.4,4.2,4.2-1.8,5.28-.97-.48,3.97-.48,3.97c0,0,6.01-5.41,7.21-3.6s-4.81,6.01-2.4,4.81,14.11-2.1,14.72,.3-11.41,1.2-11.41,1.2c0,0,6.01,3.6,4.81,4.2s-10.21-3.6-9.11-2.6,5.51,3.8,2.86,4.6-5.16-2-6.95-3.8-7.22,0-5.42,0,3,6.01,1.74,5.56c0,0,.01,3.7,16.01,2.7s40-4,46-2,19,1,19,1h6.5s13,1,19-1,30,1,46,2,16.01-2.7,16.01-2.7c-1.27,.45-.06-5.56,1.74-5.56s-3.63-1.8-5.42,0c-1.79,1.8-4.31,4.6-6.95,3.8s1.76-3.6,2.86-4.6-7.91,3.2-9.11,2.6,4.81-4.2,4.81-4.2c0,0-12.01,1.2-11.41-1.2s12.31-1.5,14.72-.3-3.6-3-2.4-4.81,7.21,3.6,7.21,3.6c0,0-1.56-3.14-.48-3.97s4.08,2.77,5.28,.97-1.8-4.2-2.4-4.2-6.01,1.8-6.01,.6c0-1.2,2.4-3,2.4-3,0,0-6.61,3.6-7.21,2.4s4.2-3.6,3.6-4.2-7.81,.6-7.81-1.2c0-1.8,5.41-.6,6.01-1.8s-10.21-3.6-10.21-4.81,8.41,1.8,10.81,1.2-1.2-3,1.2-3,3,4.81,4.2,4.81,1.2-3,2.4-3,3.6,4.81,5.41,4.2,2.4,2.4,1.2,2.4,0,1.8,3,.6c3-1.2,2.72,.17,2.72,.17,0,0,.88,2.23-.92,2.83s6.61,1.2,4.81-4.2,3.6,1.2,4.2-1.2-7.21-1.2-9.61-3.6,4.68-1.8,4.44-3-12.85,1.2-13.45-1.8,12.61-1.8,13.21-4.2c.6-2.4-13.21-2.4-13.21-3s3.6-2.4,3.6-3c0-.6-6.41,0-6.41,0,0,0-4.4,0-3.2-1.2s5.41-.6,6.01-1.2-7.21-1.2-7.21-2.4c0-1.2,5.41-.6,5.41-.6,0,0-9.01-5.41-6.61-6.61s7.81,5.41,7.81,5.41c0,0-1.57-5.7-.19-5.55s2.59,5.55,2.59,5.55c0,0,0-4.81,.6-4.81s2.4,5.41,3.6,4.81,0-4.81,1.8-4.2,1.8,6.01,2.4,6.61,.6-2.4,2.4-2.4-1.2,4.2,.6,4.81,1.8-2.4,3.6-1.2-1.8,6.01,0,4.81,3.07-5.73,1.83-7.97-5.44-2.84-7.24-4.04-4.81-2.4-3.6-3.6,4.81,1.8,5.41,1.2-.6-2.4-1.8-2.4-11.41-1.2-10.81-2.4,3-1.2,5.41-.6c2.4,.6,7.21,3,7.81,1.2s-7.81-4.2-6.61-6.01,8.41,5.41,9.01,3.6,.6-4.2-.6-6.01-1.2-3-.6-3.6,1.2-3.6-.6-4.2-6.61-1.8-5.41-3,5.41,1.8,6.01,.6-1.8-11.41,.6-11.41,1.8,9.61,1.8,9.61c0,0,7.21-5.41,7.81-3.6s-8.41,5.41-7.81,6.61,4.81-1.8,5.41-.6-5.41,3-4.2,4.2,3,3,2.4,4.2,0,6.01-1.2,6.61,.6,3,3-.6,1.8-8.41,4.2-7.81-1.8,6.61-1.2,6.61,9.01-8.41,11.41-6.01c2.4,2.4-8.41,4.2-7.81,5.41,.6,1.2,4.81,1.2,4.81,1.8s-3.6,1.8-4.81,1.8-.6,.6,.6,1.8-3,0-4.2,1.2,1.2,.6-.6,2.4c-1.8,1.8-3,3.6-.6,3s5.41-3.6,7.21-3,6.61-3,8.41-1.2-6.01,6.01-7.81,6.01,3.6,3.6,2.4,4.2-6.61-1.8-9.01-1.2c-2.4,.6-4.81,3-3.6,4.81s3,1.8,2.4,3-4.2,3.6-3,4.2,15.62-10.21,18.02-11.41,4.2-3,5.41-1.8-3,5.41-4.81,5.41-4.2,.6-3.6,1.2,4.81,0,4.81,1.8-7.21,.6-7.81,1.2,4.2,2.4,3,3.6-6.01-2.4-7.21-1.2,2.4,3,1.8,3.6-5.41-1.8-6.61,0-3.6,4.2-1.2,4.81,8.41-.6,10.21-1.8,7.21-4.2,8.41-3.6-3,3.6-1.8,3.6,3.6-3,4.81-1.8c1.2,1.2-7.21,4.81-5.41,5.41s12.01-5.41,14.42-1.8c2.4,3.6-12.01,3-12.01,3.6s3.6,1.2,3,2.4-3.6,0-5.41,0-3.6,.6-3,2.4-1.8,0-4.2,0-3.6-.6-4.2,1.2c-.6,1.8-.6-.6-3.6,0s-3.6,1.8-3,3-7.21,.6-9.61,1.2-4.81,3-3,3.6c1.8,.6,5.41-1.8,6.61-.6s0,3-1.2,3.6,4.2,0,7.21-3,2.4,.6,3.6,0,4.81-3.6,5.41-1.8-2.4,3.6-4.2,4.2-4.2,6.01-.6,4.2,7.81-6.01,9.61-4.2,1.2,4.81-2.4,4.81-8.41,0-8.41,1.2,.6,3,3,2.4c2.4-.6,2.4,1.8,.6,2.4l6.12,.96c6.23-.78,16.1,.11,18.44,.11s6.23-1.56,3.9-2.34c-2.34-.78-2.34-3.9,.78-3.12,3.12,.78,3.9-1.56,3.9-3.12s-6.23-1.56-10.91-1.56-5.45-3.9-3.12-6.23,7.79,3.12,12.46,5.45c4.67,2.34,1.56-4.67-.78-5.45s-6.23-3.12-5.45-5.45,5.45,1.56,7.01,2.34,.78-3.9,4.67,0c3.9,3.9,10.91,4.67,9.35,3.9s-3.12-3.12-1.56-4.67c1.56-1.56,6.23,1.56,8.57,.78s-.78-3.9-3.9-4.67c-3.12-.78-13.24,0-12.46-1.56s0-3.12-3.9-3.9-3.9,2.34-4.67,0c-.78-2.34-2.34-1.56-5.45-1.56s-6.23,2.34-5.45,0-1.56-3.12-3.9-3.12-6.23,1.56-7.01,0,3.9-2.34,3.9-3.12c0-.78-18.7,0-15.58-4.67,3.12-4.67,16.36,3.12,18.7,2.34s-8.57-5.45-7.01-7.01,4.67,2.34,6.23,2.34-3.9-3.9-2.34-4.67,8.57,3.12,10.91,4.67,10.13,3.12,13.24,2.34,0-3.9-1.56-6.23-7.79,.78-8.57,0,3.9-3.12,2.34-4.67-7.79,3.12-9.35,1.56,4.67-3.9,3.9-4.67-10.13,.78-10.13-1.56c0-2.34,5.45-1.56,6.23-2.34s-2.34-1.56-4.67-1.56-7.79-5.45-6.23-7.01,3.9,.78,7.01,2.34,21.81,15.58,23.37,14.8-3.12-3.9-3.9-5.45,1.56-1.56,3.12-3.9-1.56-5.45-4.67-6.23-10.13,2.34-11.69,1.56,5.45-5.45,3.12-5.45-12.46-5.45-10.13-7.79,8.57,2.34,10.91,1.56,6.23,3.12,9.35,3.9,1.56-1.56-.78-3.9c-2.34-2.34,.78-1.56-.78-3.12-1.56-1.56-7.01,0-5.45-1.56s2.34-2.34,.78-2.34-6.23-1.56-6.23-2.34c0-.78,5.45-.78,6.23-2.34s-13.24-3.9-10.13-7.01c3.12-3.12,14.02,7.79,14.8,7.79s-4.67-7.79-1.56-8.57c3.12-.78,2.34,5.45,5.45,10.13s5.45,1.56,3.9,.78-.78-7.01-1.56-8.57,1.56-3.9,3.12-5.45-6.23-3.9-5.45-5.45,6.23,2.34,7.01,.78-10.91-6.23-10.13-8.57c.78-2.34,10.13,4.67,10.13,4.67,0,0-.78-12.46,2.34-12.46s0,13.24,.78,14.8c.78,1.56,6.23-2.34,7.79-.78s-4.67,3.12-7.01,3.9c-2.34,.78-1.56,4.67-.78,5.45s.78,2.34-.78,4.67-1.56,5.45-.78,7.79,10.13-7.01,11.69-4.67c1.56,2.34-9.35,5.45-8.57,7.79s7.01-.78,10.13-1.56c3.12-.78,6.23-.78,7.01,.78s-12.46,3.12-14.02,3.12-3.12,2.34-2.34,3.12,5.45-3.12,7.01-1.56-2.34,3.12-4.67,4.67-7.79,2.34-9.39,5.25,.04,8.78,2.38,10.33c2.34,1.56-2.34-4.67,0-6.23,2.34-1.56,2.34,2.34,4.67,1.56,2.34-.78-1.56-6.23,.78-6.23s2.34,3.9,3.12,3.12,.78-7.79,3.12-8.57,.78,4.67,2.34,5.45,3.9-6.23,4.67-6.23,.78,6.23,.78,6.23c0,0,1.56-7.01,3.36-7.2s-.24,7.2-.24,7.2c0,0,7.01-8.57,10.13-7.01s-8.57,8.57-8.57,8.57c0,0,7.01-.78,7.01,.78s-10.13,2.34-9.35,3.12,6.23,0,7.79,1.56-4.15,1.56-4.15,1.56c0,0-8.31-.78-8.31,0,0,.78,4.67,3.12,4.67,3.9s-17.92,.78-17.14,3.9c.78,3.12,17.92,1.56,17.14,5.45s-17.14,.78-17.45,2.34,8.88,.78,5.76,3.9c-3.12,3.12-13.24,1.56-12.46,4.67s7.79-5.45,5.45,1.56c-2.34,7.01,8.57,6.23,6.23,5.45s-1.19-3.67-1.19-3.67c0,0-.37-1.78,3.53-.22,3.9,1.56,5.45-.78,3.9-.78s-.78-3.9,1.56-3.12,5.45-5.45,7.01-5.45,1.56,3.9,3.12,3.9,2.34-6.23,5.45-6.23-1.56,3.12,1.56,3.9,14.02-3.12,14.02-1.56-14.02,4.67-13.24,6.23,7.79,0,7.79,2.34-9.35,.78-10.13,1.56,5.45,3.9,4.67,5.45-9.35-3.12-9.35-3.12c0,0,3.12,2.34,3.12,3.9,0,1.56-7.01-.78-7.79-.78s-4.67,3.12-3.12,5.45,5.45-2.34,6.85-1.26-.62,5.15-.62,5.15c0,0,7.79-7.01,9.35-4.67,1.56,2.34-6.23,7.79-3.12,6.23s18.31-2.73,19.09,.39c.78,3.12-14.8,1.56-14.8,1.56,0,0,7.79,4.67,6.23,5.45s-13.24-4.67-11.82-3.38,7.14,4.93,3.71,5.97c-3.43,1.04-6.7-2.6-9.02-4.93-2.32-2.34-9.37,0-7.03,0s3.9,7.79,2.25,7.21-8.49-3.32-11.4-3.67-1.76,2.69,0,5.8c1.76,3.12,48.88,0,54.33,0,5.45,0,34.28,1.56,34.28,1.56h18.95s21.89-1.18,26.03-1.18c4.14,0,39.93,2.37,41.26,0s2.22-4.67,0-4.41-7.41,2.35-8.66,2.78-.06-5.48,1.71-5.48-3.58-1.77-5.34,0-4.24,4.54-6.85,3.75,1.74-3.55,2.82-4.54-7.79,3.16-8.98,2.56,4.73-4.14,4.73-4.14c0,0-11.83,1.18-11.24-1.18s12.13-1.48,14.5-.3-3.55-2.96-2.37-4.73,7.1,3.55,7.1,3.55c0,0-1.54-3.09-.47-3.91s4.02,2.73,5.21,.95-1.77-4.14-2.37-4.14-5.92,1.77-5.92,.59,2.37-2.96,2.37-2.96c0,0-6.51,3.55-7.1,2.37s4.14-3.55,3.55-4.14-7.69,.59-7.69-1.18,5.32-.59,5.92-1.77-10.06-3.55-10.06-4.73,8.28,1.77,10.65,1.18-1.18-2.96,1.18-2.96,2.96,4.73,4.14,4.73,1.18-2.96,2.37-2.96,3.55,4.73,5.32,4.14,2.37,2.37,1.18,2.37,0,1.77,2.96,.59,2.68,.17,2.68,.17c0,0,.87,2.2-.9,2.79s6.51,1.18,4.73-4.14,3.55,1.18,4.14-1.18-7.1-1.18-9.47-3.55,4.61-1.77,4.37-2.96-12.66,1.18-13.25-1.77,12.42-1.77,13.02-4.14-13.02-2.37-13.02-2.96,3.55-2.37,3.55-2.96-6.31,0-6.31,0c0,0-4.34,0-3.15-1.18s5.32-.59,5.92-1.18-7.1-1.18-7.1-2.37,5.32-.59,5.32-.59c0,0-8.87-5.32-6.51-6.51s7.69,5.32,7.69,5.32c0,0-1.55-5.61-.18-5.47s2.55,5.47,2.55,5.47c0,0,0-4.73,.59-4.73s2.37,5.32,3.55,4.73,0-4.73,1.77-4.14,1.77,5.92,2.37,6.51,.59-2.37,2.37-2.37-1.18,4.14,.59,4.73,1.77-2.37,3.55-1.18-1.77,5.92,0,4.73,3.02-5.64,1.81-7.85-5.36-2.8-7.13-3.98-4.73-2.37-3.55-3.55,4.73,1.77,5.32,1.18-.59-2.37-1.77-2.37-11.24-1.18-10.65-2.37,2.96-1.18,5.32-.59c2.37,.59,7.1,2.96,7.69,1.18s-7.69-4.14-6.51-5.92,8.28,5.32,8.87,3.55,.59-4.14-.59-5.92-1.18-2.96-.59-3.55,1.18-3.55-.59-4.14-6.51-1.77-5.32-2.96,5.32,1.77,5.92,.59-1.77-11.24,.59-11.24,1.77,9.47,1.77,9.47c0,0,7.1-5.32,7.69-3.55s-8.28,5.32-7.69,6.51,4.73-1.77,5.32-.59-5.32,2.96-4.14,4.14,2.96,2.96,2.37,4.14,0,5.92-1.18,6.51,.59,2.96,2.96-.59c2.37-3.55,1.77-8.28,4.14-7.69s-1.77,6.51-1.18,6.51,8.87-8.28,11.24-5.92-8.28,4.14-7.69,5.32,4.73,1.18,4.73,1.77-3.55,1.77-4.73,1.77-.59,.59,.59,1.77-2.96,0-4.14,1.18,1.18,.59-.59,2.37-2.96,3.55-.59,2.96,5.32-3.55,7.1-2.96,6.51-2.96,8.28-1.18-5.92,5.92-7.69,5.92,3.55,3.55,2.37,4.14-6.51-1.77-8.87-1.18-4.73,2.96-3.55,4.73,2.96,1.77,2.37,2.96-4.14,3.55-2.96,4.14,15.38-10.06,17.75-11.24,4.14-2.96,5.32-1.77-2.96,5.32-4.73,5.32-4.14,.59-3.55,1.18,4.73,0,4.73,1.77-7.1,.59-7.69,1.18,4.14,2.37,2.96,3.55-5.92-2.37-7.1-1.18,2.37,2.96,1.77,3.55-5.32-1.77-6.51,0-3.55,4.14-1.18,4.73,8.28-.59,10.06-1.77,7.1-4.14,8.28-3.55-2.96,3.55-1.77,3.55,3.55-2.96,4.73-1.77-7.1,4.73-5.32,5.32,11.83-5.32,14.2-1.77c2.37,3.55-11.83,2.96-11.83,3.55s3.55,1.18,2.96,2.37-3.55,0-5.32,0-3.55,.59-2.96,2.37-1.77,0-4.14,0-3.55-.59-4.14,1.18-.59-.59-3.55,0-3.55,1.77-2.96,2.96-7.1,.59-9.47,1.18c-2.37,.59-4.73,2.96-2.96,3.55s5.32-1.77,6.51-.59,0,2.96-1.18,3.55,4.14,0,7.1-2.96c2.96-2.96,2.37,.59,3.55,0s4.73-3.55,5.32-1.77-2.37,3.55-4.14,4.14-4.14,5.92-.59,4.14,7.69-5.92,9.47-4.14,1.18,4.73-2.37,4.73c-3.55,0-8.28,0-8.28,1.18s.59,2.96,2.96,2.37,2.37,1.77,.59,2.37,1.18,1.77,2.96,1.77,19.52-1.77,24.26-1.18,11.83,1.77,16.57,.59l5.5-.61c8,2,20,0,28-1,8-1,38,2,41,2s8-2,5-3-3-5,1-4,5-2,5-4-8-2-14-2-7-5-4-8,10,4,16,7,2-6-1-7-8-4-7-7,7,2,9,3,1-5,6,0,14,6,12,5-4-4-2-6,8,2,11,1-1-5-5-6-17,0-16-2,0-4-5-5-5,3-6,0-3-2-7-2-8,3-7,0-2-4-5-4-8,2-9,0,5-3,5-4-24,0-20-6,21,4,24,3-11-7-9-9,6,3,8,3-5-5-3-6,11,4,14,6,13,4,17,3,0-5-2-8-10,1-11,0,5-4,3-6-10,4-12,2,6-5,5-6-13,1-13-2,7-2,8-3-3-2-6-2-10-7-8-9,5,1,9,3c4,2,28,20,30,19s-4-5-5-7,2-2,4-5-2-7-6-8-13,3-15,2,7-7,4-7-16-7-13-10,11,3,14,2,8,4,12,5,2-2-1-5,1-2-1-4-9,0-7-2,3-3,1-3-8-2-8-3,7-1,8-3-17-5-13-9c4-4,18,10,19,10s-6-10-2-11,3,7,7,13,7,2,5,1-1-9-2-11,2-5,4-7-8-5-7-7,8,3,9,1-14-8-13-11,13,6,13,6c0,0-1-16,3-16s0,17,1,19,8-3,10-1c2,2-6,4-9,5s-2,6-1,7,1,3-1,6-2,7-1,10,13-9,15-6-12,7-11,10,9-1,13-2,8-1,9,1-16,4-18,4-4,3-3,4,7-4,9-2-3,4-6,6-10,3-12.05,6.73,.05,11.27,3.05,13.27-3-6,0-8,3,3,6,2-2-8,1-8,3,5,4,4,1-10,4-11,1,6,3,7,5-8,6-8,1,8,1,8c0,0,2-9,4.31-9.24s-.31,9.24-.31,9.24c0,0,9-11,13-9s-11,11-11,11c0,0,9-1,9,1s-13,3-12,4,8,0,10,2c2,2-5.33,2-5.33,2,0,0-10.67-1-10.67,0s6,4,6,5-23,1-22,5,23,2,22,7-22,1-22.39,3,11.39,1,7.39,5-17,2-16,6,10-7,7,2,11,8,8,7-1.53-4.71-1.53-4.71c0,0-.47-2.29,4.53-.29s7-1,5-1-1-5,2-4,7-7,9-7,2,5,4,5,3-8,7-8-2,4,2,5c4,1,18-4,18-2s-18,6-17,8,10,0,10,3-12,1-13,2,7,5,6,7-12-4-12-4c0,0,4,3,4,5s-9-1-10-1-6,4-4,7,7-3,8.8-1.61-.8,6.61-.8,6.61c0,0,10-9,12-6s-8,10-4,8,23.5-3.5,24.5,.5c1,4-19,2-19,2,0,0,10,6,8,7s-17-6-15.17-4.33,9.17,6.33,4.77,7.67-8.6-3.33-11.57-6.33-12.02,0-9.02,0,5,10,2.89,9.26-10.89-4.26-14.64-4.71-2.26,3.45,0,7.45c2.26,4,62.74,0,69.74,0,7,0,44,2,44,2"/>
</svg>