<?xml version="1.0" standalone="no"?>
<!DOCTYPE svg PUBLIC "-//W3C//DTD SVG 20010904//EN"
 "http://www.w3.org/TR/2001/REC-SVG-20010904/DTD/svg10.dtd">
<svg version="1.0" xmlns="http://www.w3.org/2000/svg"
 width="66.000000pt" height="66.000000pt" viewBox="0 0 66.000000 66.000000"
 preserveAspectRatio="xMidYMid meet">

<g transform="translate(0.000000,66.000000) scale(0.100000,-0.100000)"
fill="#000000" stroke="none">
<path d="M0 330 l0 -330 330 0 330 0 0 246 0 246 -67 -60 c-38 -33 -113 -106
-168 -161 -55 -56 -104 -101 -109 -101 -13 0 -196 182 -196 195 0 13 62 75 75
75 5 0 35 -25 65 -55 l56 -56 128 131 c70 71 133 130 139 130 6 0 26 -14 44
-32 l33 -32 0 67 0 67 -330 0 -330 0 0 -330z"/>
</g>
</svg>
